HIERARCHY
ROOT hip
{
  OFFSET 0 0 0
  CHANNELS 6 Xposition Yposition Zposition Zrotation Yrotation Xrotation
  JOINT abdomen
  {
    OFFSET 0 20.6881 -0.73152
    CHANNELS 3 Zrotation Xrotation Yrotation
    JOINT chest
    {
      OFFSET 0 11.7043 -0.48768
      CHANNELS 3 Zrotation Xrotation Yrotation
      JOINT neck
      {
        OFFSET 0 22.1894 -2.19456
        CHANNELS 3 Zrotation Xrotation Yrotation
        JOINT head
        {
          OFFSET -0.24384 7.07133 1.2192
          CHANNELS 3 Zrotation Xrotation Yrotation
          JOINT leftEye
          {
            OFFSET 4.14528 8.04674 8.04672
            CHANNELS 3 Zrotation Xrotation Yrotation
            End Site
            {
              OFFSET 1 0 0
            }
          }
          JOINT rightEye
          {
            OFFSET -3.6576 8.04674 8.04672
            CHANNELS 3 Zrotation Xrotation Yrotation
            End Site
            {
              OFFSET 1 0 0
            }
          }
        }
      }
      JOINT rCollar
      {
        OFFSET -2.68224 19.2634 -4.8768
        CHANNELS 3 Zrotation Xrotation Yrotation
        JOINT rShldr
        {
          OFFSET -8.77824 -1.95073 1.46304
          CHANNELS 3 Zrotation Xrotation Yrotation
          JOINT rForeArm
          {
            OFFSET -28.1742 -1.7115 0.48768
            CHANNELS 3 Zrotation Xrotation Yrotation
            JOINT rHand
            {
              OFFSET -22.5879 0.773209 7.07136
              CHANNELS 3 Zrotation Xrotation Yrotation
              JOINT rThumb1
              {
                OFFSET -1.2192 -0.487915 3.41376
                CHANNELS 3 Zrotation Xrotation Yrotation
                JOINT rThumb2
                {
                  OFFSET -3.37035 -0.52449 3.41376
                  CHANNELS 3 Zrotation Xrotation Yrotation
                  End Site
                  {
                    OFFSET -1.78271 -1.18214 1.43049
                  }
                }
              }
              JOINT rIndex1
              {
                OFFSET -7.75947 0.938293 5.60832
                CHANNELS 3 Zrotation Xrotation Yrotation
                JOINT rIndex2
                {
                  OFFSET -2.54057 -0.884171 1.56538
                  CHANNELS 3 Zrotation Xrotation Yrotation
                  End Site
                  {
                    OFFSET -1.62519 -0.234802 1.16502
                  }
                }
              }
              JOINT rMid1
              {
                OFFSET -8.24714 1.18213 3.41376
                CHANNELS 3 Zrotation Xrotation Yrotation
                JOINT rMid2
                {
                  OFFSET -3.10165 -0.590103 1.0647
                  CHANNELS 3 Zrotation Xrotation Yrotation
                  End Site
                  {
                    OFFSET -2.48547 -0.328903 0.83742
                  }
                }
              }
              JOINT rRing1
              {
                OFFSET -8.82822 0.546677 1.51678
                CHANNELS 3 Zrotation Xrotation Yrotation
                JOINT rRing2
                {
                  OFFSET -2.60934 -0.819778 -0.0198488
                  CHANNELS 3 Zrotation Xrotation Yrotation
                  End Site
                  {
                    OFFSET -2.33842 -0.294052 0.168128
                  }
                }
              }
              JOINT rPinky1
              {
                OFFSET -8.27202 -0.0477905 -0.4584
                CHANNELS 3 Zrotation Xrotation Yrotation
                JOINT rPinky2
                {
                  OFFSET -1.82734 -0.647385 -0.700984
                  CHANNELS 3 Zrotation Xrotation Yrotation
                  End Site
                  {
                    OFFSET -1.69225 -0.51767 -0.607171
                  }
                }
              }
            }
          }
        }
      }
      JOINT lCollar
      {
        OFFSET 2.68224 19.2634 -4.8768
        CHANNELS 3 Zrotation Xrotation Yrotation
        JOINT lShldr
        {
          OFFSET 8.77824 -1.95073 1.46304
          CHANNELS 3 Zrotation Xrotation Yrotation
          JOINT lForeArm
          {
            OFFSET 28.1742 -1.7115 0.48768
            CHANNELS 3 Zrotation Xrotation Yrotation
            JOINT lHand
            {
              OFFSET 22.5879 0.773209 7.07136
              CHANNELS 3 Zrotation Xrotation Yrotation
              JOINT lThumb1
              {
                OFFSET 1.2192 -0.487915 3.41376
                CHANNELS 3 Zrotation Xrotation Yrotation
                JOINT lThumb2
                {
                  OFFSET 3.37035 -0.52449 3.41376
                  CHANNELS 3 Zrotation Xrotation Yrotation
                  End Site
                  {
                    OFFSET 1.78271 -1.18214 1.43049
                  }
                }
              }
              JOINT lIndex1
              {
                OFFSET 7.75947 0.938293 5.60832
                CHANNELS 3 Zrotation Xrotation Yrotation
                JOINT lIndex2
                {
                  OFFSET 2.54057 -0.884171 1.56538
                  CHANNELS 3 Zrotation Xrotation Yrotation
                  End Site
                  {
                    OFFSET 1.62519 -0.234802 1.16502
                  }
                }
              }
              JOINT lMid1
              {
                OFFSET 8.24714 1.18213 3.41376
                CHANNELS 3 Zrotation Xrotation Yrotation
                JOINT lMid2
                {
                  OFFSET 3.10165 -0.590103 1.0647
                  CHANNELS 3 Zrotation Xrotation Yrotation
                  End Site
                  {
                    OFFSET 2.48547 -0.328903 0.83742
                  }
                }
              }
              JOINT lRing1
              {
                OFFSET 8.82822 0.546677 1.51678
                CHANNELS 3 Zrotation Xrotation Yrotation
                JOINT lRing2
                {
                  OFFSET 2.60934 -0.819778 -0.0198488
                  CHANNELS 3 Zrotation Xrotation Yrotation
                  End Site
                  {
                    OFFSET 2.33842 -0.294052 0.168128
                  }
                }
              }
              JOINT lPinky1
              {
                OFFSET 8.27202 -0.0477905 -0.4584
                CHANNELS 3 Zrotation Xrotation Yrotation
                JOINT lPinky2
                {
                  OFFSET 1.82734 -0.647385 -0.700984
                  CHANNELS 3 Zrotation Xrotation Yrotation
                  End Site
                  {
                    OFFSET 1.69225 -0.51767 -0.607171
                  }
                }
              }
            }
          }
        }
      }
    }
  }
  JOINT rButtock
  {
    OFFSET -8.77824 4.35084 1.2192
    CHANNELS 3 Zrotation Xrotation Yrotation
    JOINT rThigh
    {
      OFFSET 0 -1.70687 -2.19456
      CHANNELS 3 Zrotation Xrotation Yrotation
      JOINT rShin
      {
        OFFSET 0 -36.8199 0.73152
        CHANNELS 3 Zrotation Xrotation Yrotation
        JOINT rFoot
        {
          OFFSET 0.73152 -45.1104 -5.12064
          CHANNELS 3 Zrotation Xrotation Yrotation
          End Site
          {
            OFFSET -1.1221 -3.69964 12.103
          }
        }
      }
    }
  }
  JOINT lButtock
  {
    OFFSET 8.77824 4.35084 1.2192
    CHANNELS 3 Zrotation Xrotation Yrotation
    JOINT lThigh
    {
      OFFSET 0 -1.70687 -2.19456
      CHANNELS 3 Zrotation Xrotation Yrotation
      JOINT lShin
      {
        OFFSET 0 -36.8199 0.73152
        CHANNELS 3 Zrotation Xrotation Yrotation
        JOINT lFoot
        {
          OFFSET -0.73152 -45.1104 -5.12064
          CHANNELS 3 Zrotation Xrotation Yrotation
          End Site
          {
            OFFSET 1.1221 -3.69964 12.103
          }
        }
      }
    }
  }
}
MOTION
Frames:	8
Frame Time:	0.00833333
51.0203 117.231 74.5702 -179.253 -4.075 180.468 6.47249 12.7005 0.601397 0.637948 -11.1606 0.41986 -6.14593 8.12161 -3.05825 5.07034 -21.5295 -4.29336 -0.0 0.0 0.0 -0.0 0.0 0.0 -5.07437e-14 -4.61937e-14 2.96686e-14 34.2008 -60.9342 88.7861 -16.9874 -9.63776 31.7867 -0.00662859 2.27049 0.319278 -1.32614e-09 -1.07901e-09 2.80217e-11 -2.29413e-09 -1.86839e-09 5.48919e-11 -1.32614e-09 -1.07901e-09 2.80147e-11 7.73091 5.47488 0.417314 -1.32614e-09 -1.07901e-09 2.80199e-11 2.90554 0.965183 0.102902 -1.32614e-09 -1.07901e-09 2.80139e-11 10.2786 0.731801 0.0259123 -1.32615e-09 -1.07901e-09 2.80177e-11 2.22167 -0.733487 -0.20892 -5.0851e-14 -4.61924e-14 2.9504e-14 -60.7833 -63.0476 -117.351 14.5868 -7.43745 -26.7429 0.112157 -9.52876 1.3517 8.44442e-10 1.45539e-10 -5.65589e-10 1.46322e-09 2.50755e-10 -9.75994e-10 8.44438e-10 1.45538e-10 -5.65577e-10 -7.73091 5.47488 -0.417314 8.44442e-10 1.45538e-10 -5.65586e-10 -2.90554 0.965183 -0.102902 8.4443e-10 1.45538e-10 -5.65588e-10 -10.2786 0.731801 -0.0259123 8.44445e-10 1.45538e-10 -5.65593e-10 -2.22167 -0.733487 0.20892 -2.03217e-16 0.0 -3.88251e-19 12.2225 -16.899 33.9639 0.0746321 22.0879 0.698533 -20.3128 -47.0886 -25.7677 2.03217e-16 0.0 3.88251e-19 -4.04187 -16.5774 -27.4904 0.0882384 20.8737 -0.853744 14.4229 -32.2065 22.245
50.9105 116.785 73.8615 -179.394 -4.1306 180.034 6.33557 13.0576 0.631893 0.604018 -11.2175 0.423378 -6.19975 8.50314 -3.03559 5.1904 -21.653 -4.25632 -0.0 0.0 0.0 -0.0 0.0 0.0 -2.30342e-14 -5.67064e-15 1.45241e-13 32.3467 -60.4584 88.2168 -16.9799 -9.63038 31.7701 -0.00671102 2.29805 0.323156 -6.08994e-10 -1.98471e-09 4.22923e-10 -1.05311e-09 -3.43574e-09 7.36609e-10 -6.08986e-10 -1.98471e-09 4.22917e-10 7.73091 5.47488 0.417314 -6.0899e-10 -1.98471e-09 4.22928e-10 2.90554 0.965183 0.102902 -6.0899e-10 -1.98471e-09 4.22916e-10 10.2786 0.731801 0.0259123 -6.09e-10 -1.98471e-09 4.22919e-10 2.22167 -0.733487 -0.20892 -2.31956e-14 -5.66751e-15 1.45063e-13 -58.305 -63.2064 -115.412 14.7142 -7.5449 -27.0033 0.121804 -9.91642 1.40783 -3.36625e-10 9.15329e-10 -2.81379e-10 -5.83507e-10 1.58408e-09 -4.88561e-10 -3.36628e-10 9.15328e-10 -2.81362e-10 -7.73091 5.47488 -0.417314 -3.36625e-10 9.15327e-10 -2.81371e-10 -2.90554 0.965183 -0.102902 -3.36639e-10 9.15327e-10 -2.81376e-10 -10.2786 0.731801 -0.0259123 -3.36623e-10 9.15326e-10 -2.8138e-10 -2.22167 -0.733487 0.20892 -2.03217e-16 0.0 -3.88251e-19 11.8203 -16.958 34.7195 0.0740349 22.1719 0.709424 -19.6253 -48.3066 -24.5025 2.03217e-16 0.0 3.88251e-19 -4.15102 -16.6025 -26.4272 0.0872122 20.5167 -0.833793 14.2397 -30.5264 22.7456
50.776 116.238 73.1352 -179.758 -4.1135 179.644 6.21105 13.3743 0.688002 0.556833 -11.2933 0.43249 -6.23078 8.76463 -3.01625 5.22731 -21.6798 -4.23665 -0.0 0.0 0.0 -0.0 0.0 0.0 -7.80478e-15 2.58389e-14 2.23533e-13 30.6158 -60.1567 87.7414 -16.9668 -9.61744 31.7415 -0.00721983 2.42535 0.341067 -1.76494e-10 -2.52191e-09 6.22212e-10 -3.04827e-10 -4.36521e-09 1.08041e-09 -1.76486e-10 -2.52191e-09 6.22206e-10 7.73091 5.47488 0.417314 -1.76489e-10 -2.52191e-09 6.22221e-10 2.90554 0.965183 0.102902 -1.7649e-10 -2.52191e-09 6.22206e-10 10.2786 0.731801 0.0259123 -1.765e-10 -2.52191e-09 6.22209e-10 2.22167 -0.733487 -0.20892 -7.99915e-15 2.58438e-14 2.23335e-13 -55.9842 -63.408 -113.588 14.8564 -7.66661 -27.2936 0.128795 -10.1793 1.446 -1.09897e-09 1.40343e-09 -1.03193e-10 -1.9043e-09 2.42948e-09 -1.82995e-10 -1.09897e-09 1.40343e-09 -1.03174e-10 -7.73091 5.47488 -0.417314 -1.09897e-09 1.40343e-09 -1.03184e-10 -2.90554 0.965183 -0.102902 -1.09898e-09 1.40343e-09 -1.03188e-10 -10.2786 0.731801 -0.0259123 -1.09897e-09 1.40343e-09 -1.03193e-10 -2.22167 -0.733487 0.20892 -2.03217e-16 0.0 -3.88251e-19 11.3868 -17.0399 35.3607 0.0731192 22.2603 0.720657 -19.0937 -49.0534 -23.597 2.03217e-16 0.0 3.88251e-19 -4.30569 -16.6713 -25.4607 0.0866987 20.1298 -0.802694 14.0043 -28.0951 23.6019
50.6186 115.594 72.3865 -180.188 -4.2053 179.312 6.08047 13.6748 0.791398 0.48494 -11.4221 0.451838 -6.22985 8.86242 -2.99856 5.1591 -21.6059 -4.23166 -0.0 0.0 0.0 -0.0 0.0 0.0 -1.44205e-14 4.72105e-14 2.52424e-13 28.843 -60.0929 87.2158 -16.9396 -9.59034 31.6823 -0.00877156 2.72696 0.383522 -1.88544e-10 -2.56808e-09 5.09551e-10 -3.26144e-10 -4.4446e-09 8.85372e-10 -1.88538e-10 -2.56808e-09 5.09542e-10 7.73091 5.47488 0.417314 -1.8854e-10 -2.56808e-09 5.0956e-10 2.90554 0.965183 0.102902 -1.88539e-10 -2.56808e-09 5.09545e-10 10.2786 0.731801 0.0259123 -1.88551e-10 -2.56808e-09 5.09547e-10 2.22167 -0.733487 -0.20892 -1.46209e-14 4.72172e-14 2.52189e-13 -53.84 -63.66 -111.908 15.0121 -7.80087 -27.6132 0.130095 -10.2193 1.45186 -1.29737e-09 1.51644e-09 -8.31295e-11 -2.24715e-09 2.62515e-09 -1.48964e-10 -1.29737e-09 1.51644e-09 -8.31118e-11 -7.73091 5.47488 -0.417314 -1.29737e-09 1.51644e-09 -8.31229e-11 -2.90554 0.965183 -0.102902 -1.29738e-09 1.51644e-09 -8.31251e-11 -10.2786 0.731801 -0.0259123 -1.29737e-09 1.51644e-09 -8.31297e-11 -2.22167 -0.733487 0.20892 -2.03217e-16 0.0 -3.88251e-19 10.8963 -17.16 35.9067 0.0716013 22.3554 0.73199 -18.7316 -49.2694 -23.0607 2.03217e-16 0.0 3.88251e-19 -4.53413 -16.8267 -24.5911 0.0875301 19.6969 -0.755427 13.6577 -24.3673 25.2093
50.4636 114.911 71.6424 -180.452 -4.5242 179.043 5.92667 13.9543 0.928549 0.394009 -11.5905 0.477968 -6.21329 8.87061 -2.98445 5.03492 -21.4923 -4.23865 -0.0 0.0 0.0 -0.0 0.0 0.0 -3.43107e-14 6.56686e-14 2.55317e-13 27.0773 -60.2163 86.6914 -16.9063 -9.5573 31.6102 -0.0115224 3.13525 0.441044 -4.42867e-10 -2.31588e-09 1.98458e-10 -7.66955e-10 -4.00739e-09 3.47389e-10 -4.42862e-10 -2.31588e-09 1.98445e-10 7.73091 5.47488 0.417314 -4.42864e-10 -2.31588e-09 1.98465e-10 2.90554 0.965183 0.102902 -4.42859e-10 -2.31588e-09 1.98452e-10 10.2786 0.731801 0.0259123 -4.42874e-10 -2.31588e-09 1.98453e-10 2.22167 -0.733487 -0.20892 -3.45022e-14 6.56774e-14 2.55035e-13 -51.8085 -63.9498 -110.317 15.1792 -7.94598 -27.9593 0.127628 -10.1169 1.43703 -1.20358e-09 1.4221e-09 -1.37376e-10 -2.08319e-09 2.46163e-09 -2.42409e-10 -1.20358e-09 1.42209e-09 -1.37362e-10 -7.73091 5.47488 -0.417314 -1.20358e-09 1.42209e-09 -1.37375e-10 -2.90554 0.965183 -0.102902 -1.20359e-09 1.42209e-09 -1.37373e-10 -10.2786 0.731801 -0.0259123 -1.20357e-09 1.42209e-09 -1.37377e-10 -2.22167 -0.733487 0.20892 -2.03217e-16 0.0 -3.88251e-19 10.3442 -17.297 36.3783 0.0696298 22.4703 0.743981 -18.456 -49.1394 -22.7262 2.03217e-16 0.0 3.88251e-19 -4.81982 -17.0305 -23.7255 0.0899648 19.2194 -0.695568 12.9648 -19.7536 27.3547
50.3372 114.202 70.8762 -180.647 -4.7387 178.727 5.80322 14.1621 1.06103 0.305703 -11.7312 0.503055 -6.18899 8.83183 -2.97608 4.86717 -21.3024 -4.26576 -0.0 0.0 0.0 -0.0 0.0 0.0 -5.28317e-14 7.83249e-14 2.41933e-13 25.615 -60.4262 86.4101 -16.8802 -9.5314 31.5537 -0.0149763 3.53314 0.497165 -7.31394e-10 -1.89652e-09 -1.34442e-10 -1.26689e-09 -3.28089e-09 -2.28364e-10 -7.3139e-10 -1.89652e-09 -1.3446e-10 7.73091 5.47488 0.417314 -7.31393e-10 -1.89652e-09 -1.3444e-10 2.90554 0.965183 0.102902 -7.31384e-10 -1.89652e-09 -1.34449e-10 10.2786 0.731801 0.0259123 -7.31402e-10 -1.89652e-09 -1.34448e-10 2.22167 -0.733487 -0.20892 -5.30038e-14 7.83354e-14 2.41607e-13 -49.861 -64.2907 -108.753 15.3607 -8.10582 -28.3359 0.125446 -10.0323 1.42476 -9.40529e-10 1.20473e-09 -2.1157e-10 -1.62608e-09 2.08509e-09 -3.69616e-10 -9.40535e-10 1.20473e-09 -2.11561e-10 -7.73091 5.47488 -0.417314 -9.40532e-10 1.20473e-09 -2.11576e-10 -2.90554 0.965183 -0.102902 -9.40535e-10 1.20473e-09 -2.11569e-10 -10.2786 0.731801 -0.0259123 -9.40521e-10 1.20473e-09 -2.11574e-10 -2.22167 -0.733487 0.20892 -2.03217e-16 0.0 -3.88251e-19 9.79007 -17.4387 36.7175 0.0677034 22.5898 0.756769 -18.4345 -48.6693 -22.7914 2.03217e-16 0.0 3.88251e-19 -5.10243 -17.2243 -22.9317 0.0931842 18.7322 -0.632166 11.8632 -15.32 29.3745
50.1974 113.412 70.0806 -180.953 -4.8721 178.413 5.76475 14.2476 1.15013 0.241498 -11.7769 0.51923 -6.16486 8.78872 -2.97557 4.66858 -20.9997 -4.32108 -0.0 0.0 0.0 -0.0 0.0 0.0 -5.534e-14 8.2291e-14 2.21993e-13 24.767 -60.6235 86.6303 -16.8745 -9.52583 31.5414 -0.0177763 3.80356 0.535351 -8.46058e-10 -1.44122e-09 -3.12528e-10 -1.46559e-09 -2.49244e-09 -5.36719e-10 -8.46055e-10 -1.44122e-09 -3.12547e-10 7.73091 5.47488 0.417314 -8.46057e-10 -1.44122e-09 -3.12528e-10 2.90554 0.965183 0.102902 -8.46046e-10 -1.44122e-09 -3.12534e-10 10.2786 0.731801 0.0259123 -8.46065e-10 -1.44122e-09 -3.12534e-10 2.22167 -0.733487 -0.20892 -5.54862e-14 8.23023e-14 2.21645e-13 -47.9627 -64.6921 -107.145 15.5592 -8.2841 -28.7476 0.127431 -10.1259 1.43826 -6.31148e-10 9.48709e-10 -2.5135e-10 -1.08946e-09 1.6417e-09 -4.36876e-10 -6.31154e-10 9.48709e-10 -2.51343e-10 -7.73091 5.47488 -0.417314 -6.31151e-10 9.48709e-10 -2.51359e-10 -2.90554 0.965183 -0.102902 -6.31151e-10 9.48709e-10 -2.5135e-10 -10.2786 0.731801 -0.0259123 -6.31139e-10 9.4871e-10 -2.51356e-10 -2.22167 -0.733487 0.20892 -2.03217e-16 0.0 -3.88251e-19 9.29246 -17.5741 36.8661 0.0663335 22.6989 0.770487 -18.8089 -47.8643 -23.4362 2.03217e-16 0.0 3.88251e-19 -5.32547 -17.3496 -22.2783 0.0959077 18.2697 -0.574102 10.623 -11.9997 30.5669
50.0487 112.513 69.2781 -181.219 -5.0846 178.192 5.83915 14.1616 1.18449 0.215187 -11.6758 0.524695 -6.13642 8.73525 -2.98733 4.42218 -20.5294 -4.41978 -0.0 0.0 0.0 -0.0 0.0 0.0 -3.33819e-14 6.9254e-14 1.9085e-13 24.823 -60.8024 87.649 -16.8711 -9.52126 31.537 -0.0201559 3.98416 0.560883 -7.21635e-10 -8.68022e-10 -2.57223e-10 -1.24992e-09 -1.50033e-09 -4.41989e-10 -7.21631e-10 -8.68025e-10 -2.5724e-10 7.73091 5.47488 0.417314 -7.21635e-10 -8.68025e-10 -2.57225e-10 2.90554 0.965183 0.102902 -7.21622e-10 -8.68025e-10 -2.57228e-10 10.2786 0.731801 0.0259123 -7.21642e-10 -8.68022e-10 -2.57228e-10 2.22167 -0.733487 -0.20892 -3.34881e-14 6.92647e-14 1.90512e-13 -46.2217 -65.1675 -105.602 15.7413 -8.44555 -29.1378 0.134764 -10.378 1.47508 -1.79844e-10 5.9707e-10 -2.52202e-10 -3.08122e-10 1.03289e-09 -4.35678e-10 -1.7985e-10 5.97071e-10 -2.52197e-10 -7.73091 5.47488 -0.417314 -1.79845e-10 5.97071e-10 -2.52211e-10 -2.90554 0.965183 -0.102902 -1.79847e-10 5.97071e-10 -2.52204e-10 -10.2786 0.731801 -0.0259123 -1.79835e-10 5.97072e-10 -2.52212e-10 -2.22167 -0.733487 0.20892 -2.03217e-16 0.0 -3.88251e-19 8.87422 -17.6933 36.8708 0.0662357 22.7827 0.789496 -19.7043 -47.0097 -24.7595 2.03217e-16 0.0 3.88251e-19 -5.49291 -17.3929 -21.8595 0.0972432 17.8434 -0.526549 9.63315 -10.2374 30.5475
